{
	"asset":{
		"generator":"Khronos glTF Blender I/O v5.1.18",
		"version":"2.0"
	},
	"scene":0,
	"scenes":[
		{
			"name":"Scene",
			"nodes":[
				23,
				24
			]
		}
	],
	"nodes":[
		{
			"name":"skull",
			"rotation":[
				-0.005288190208375454,
				-0.0002204053453169763,
				-0.0043172757141292095,
				0.9999766945838928
			],
			"scale":[
				1,
				1.0000001192092896,
				1.0000001192092896
			],
			"translation":[
				-1.83936208486557e-08,
				22.512161254882812,
				4.16701368521899e-07
			]
		},
		{
			"name":"leftHand.001",
			"rotation":[
				-2.0885716964874442e-18,
				0,
				-7.0929556444856295e-15,
				1
			],
			"scale":[
				0.9999999403953552,
				0.9999999403953552,
				0.9999999403953552
			],
			"translation":[
				5.371475708670914e-09,
				16.147972106933594,
				-7.683021976845339e-06
			]
		},
		{
			"children":[
				1
			],
			"name":"leftHand",
			"rotation":[
				-1.7715068346233907e-15,
				-2.3822804165882094e-22,
				-7.262753563158121e-15,
				1
			],
			"scale":[
				0.9999999403953552,
				0.9999999403953552,
				0.9999999403953552
			],
			"translation":[
				5.371552980193428e-09,
				53.74610900878906,
				-7.683021976845339e-06
			]
		},
		{
			"children":[
				2
			],
			"name":"leftUpArm",
			"rotation":[
				1.7530737750348635e-08,
				-1.5397219499391213e-08,
				4.991298041545633e-09,
				1
			],
			"scale":[
				0.9999999403953552,
				0.9999999403953552,
				0.9999999403953552
			],
			"translation":[
				-3.640730028564576e-08,
				8.711841583251953,
				9.68924450717168e-06
			]
		},
		{
			"children":[
				3
			],
			"name":"leftShoulder",
			"rotation":[
				0.5038555860519409,
				0.5003425478935242,
				-0.49938756227493286,
				0.49638602137565613
			],
			"scale":[
				1.0000004768371582,
				1.0000004768371582,
				1.000000238418579
			],
			"translation":[
				51.00297164916992,
				11.49516487121582,
				-4.0909247398376465
			]
		},
		{
			"name":"right.hand.001",
			"rotation":[
				1.5458485704240521e-18,
				1.7763568394002505e-15,
				-1.647890191174053e-18,
				1
			],
			"scale":[
				1,
				0.9999999403953552,
				0.9999999403953552
			],
			"translation":[
				7.656374691578094e-06,
				16.14797019958496,
				-3.2486241252627224e-08
			]
		},
		{
			"children":[
				5
			],
			"name":"right.hand",
			"rotation":[
				4.473697684547785e-16,
				1.7763568394002505e-15,
				8.929947549173316e-16,
				1
			],
			"scale":[
				1,
				0.9999999403953552,
				0.9999999403953552
			],
			"translation":[
				7.656374691578094e-06,
				54.9649543762207,
				-3.248614177664422e-08
			]
		},
		{
			"children":[
				6
			],
			"name":"right.UpArm",
			"rotation":[
				-4.627509486709869e-09,
				1.3969856382800572e-09,
				-1.4971417883202776e-08,
				1
			],
			"scale":[
				1,
				0.9999999403953552,
				1
			],
			"translation":[
				-5.84866711506038e-06,
				8.711843490600586,
				-7.173412086558528e-09
			]
		},
		{
			"children":[
				7
			],
			"name":"right.shoulder",
			"rotation":[
				0.0027976753190159798,
				-0.003159452462568879,
				0.7047935128211975,
				0.7093999981880188
			],
			"scale":[
				1.0000001192092896,
				1,
				1.0000001192092896
			],
			"translation":[
				-50.139747619628906,
				12.15430736541748,
				-4.139898300170898
			]
		},
		{
			"children":[
				0,
				4,
				8
			],
			"name":"spine",
			"rotation":[
				-0.013431121595203876,
				0.00028583878884091973,
				0.0032548801973462105,
				0.999904453754425
			],
			"translation":[
				0,
				10.28447437286377,
				3.5762786865234375e-07
			]
		},
		{
			"name":"leftFoot",
			"rotation":[
				0.7095999717712402,
				1.752324990027341e-14,
				6.20351983116052e-08,
				0.7046047449111938
			],
			"scale":[
				0.9999999403953552,
				1,
				1
			],
			"translation":[
				-5.994079970150779e-07,
				31.07156753540039,
				3.428192485444015e-08
			]
		},
		{
			"children":[
				10
			],
			"name":"leftLeg",
			"rotation":[
				-0.0018597941379994154,
				-1.3552551389875814e-20,
				-1.6258838719807045e-10,
				0.9999982714653015
			],
			"scale":[
				0.9999999403953552,
				1,
				1
			],
			"translation":[
				-6.105146326262911e-07,
				36.42257308959961,
				5.437152594822692e-07
			]
		},
		{
			"children":[
				11
			],
			"name":"leftLegUp",
			"rotation":[
				0.000856165075674653,
				8.742274104633907e-08,
				-5.2041724131638914e-17,
				0.9999996423721313
			],
			"scale":[
				0.9999999403953552,
				0.9999998807907104,
				0.9999998807907104
			],
			"translation":[
				5.9995028323101e-07,
				19.82379913330078,
				2.0975585357518867e-07
			]
		},
		{
			"children":[
				12
			],
			"name":"leftHip",
			"rotation":[
				4.3709537322911274e-08,
				0.00921908300369978,
				0.9999575018882751,
				4.0297884473794454e-10
			],
			"scale":[
				1,
				1.0000001192092896,
				0.9999999403953552
			],
			"translation":[
				21.40580177307129,
				6.383120536804199,
				3.077350378036499
			]
		},
		{
			"name":"rightFoot",
			"rotation":[
				0.7095999121665955,
				7.509965211011972e-15,
				6.203520541703256e-08,
				0.7046048045158386
			],
			"scale":[
				0.9999999403953552,
				0.9999998807907104,
				0.9999999403953552
			],
			"translation":[
				-2.506756572984159e-06,
				31.071571350097656,
				-1.5183491086645517e-07
			]
		},
		{
			"children":[
				14
			],
			"name":"rightLeg",
			"rotation":[
				-0.0018598095048218966,
				-1.3552551389875814e-20,
				-1.625897333434878e-10,
				0.9999982714653015
			],
			"scale":[
				0.9999999403953552,
				1,
				1
			],
			"translation":[
				-2.51786332228221e-06,
				36.42257308959961,
				4.5212789245852036e-07
			]
		},
		{
			"children":[
				15
			],
			"name":"rightLegUp",
			"rotation":[
				0.000856165075674653,
				8.742274104633907e-08,
				-5.2041724131638914e-17,
				0.9999996423721313
			],
			"scale":[
				0.9999999403953552,
				0.9999998807907104,
				0.9999998807907104
			],
			"translation":[
				-1.3073982927380712e-06,
				19.82379913330078,
				3.0134299322526203e-07
			]
		},
		{
			"children":[
				16
			],
			"name":"rightHip",
			"rotation":[
				4.3709537322911274e-08,
				0.00921908300369978,
				0.9999575018882751,
				4.0297884473794454e-10
			],
			"scale":[
				1,
				1.0000001192092896,
				0.9999999403953552
			],
			"translation":[
				-21.181615829467773,
				6.383120536804199,
				3.077350378036499
			]
		},
		{
			"children":[
				9,
				13,
				17
			],
			"name":"hips",
			"rotation":[
				-0.7005578279495239,
				0,
				0,
				0.7135956287384033
			],
			"scale":[
				1,
				1.0000001192092896,
				1
			],
			"translation":[
				0,
				3.3944954872131348,
				-84.07559967041016
			]
		},
		{
			"mesh":0,
			"name":"leftArm",
			"skin":0
		},
		{
			"mesh":1,
			"name":"leftLeg",
			"skin":0
		},
		{
			"mesh":2,
			"name":"rightArm",
			"skin":0
		},
		{
			"mesh":3,
			"name":"rightLeg",
			"skin":0
		},
		{
			"children":[
				19,
				20,
				21,
				22,
				18
			],
			"name":"CharacterBase",
			"rotation":[
				0.7071068286895752,
				0,
				0,
				0.7071068286895752
			],
			"scale":[
				0.012487047351896763,
				0.012487047351896763,
				0.012487047351896763
			],
			"translation":[
				0.004102344159036875,
				0,
				0.0034167803823947906
			]
		},
		{
			"mesh":4,
			"name":"avo.body",
			"skin":0
		}
	],
	"materials":[
		{
			"doubleSided":true,
			"name":"arms",
			"pbrMetallicRoughness":{
				"baseColorFactor":[
					0.15803682804107666,
					0.10411998629570007,
					0.024945992976427078,
					1
				],
				"metallicFactor":0,
				"roughnessFactor":0.30000001192092896
			}
		},
		{
			"doubleSided":true,
			"name":"dark",
			"pbrMetallicRoughness":{
				"baseColorFactor":[
					0.003588917199522257,
					0.07322438061237335,
					0,
					1
				],
				"metallicFactor":0,
				"roughnessFactor":0.5
			}
		},
		{
			"doubleSided":true,
			"name":"light",
			"pbrMetallicRoughness":{
				"baseColorFactor":[
					0.3502705693244934,
					0.5156123638153076,
					0.12872806191444397,
					1
				],
				"metallicFactor":0,
				"roughnessFactor":0.5
			}
		},
		{
			"doubleSided":true,
			"name":"pit",
			"pbrMetallicRoughness":{
				"baseColorFactor":[
					0.05914505198597908,
					0.0338858999311924,
					0.019046198576688766,
					1
				],
				"metallicFactor":0,
				"roughnessFactor":0.5
			}
		},
		{
			"doubleSided":true,
			"name":"eyes and mouth",
			"pbrMetallicRoughness":{
				"baseColorFactor":[
					0,
					0,
					0,
					1
				],
				"metallicFactor":0,
				"roughnessFactor":0
			}
		}
	],
	"meshes":[
		{
			"name":"Cylinder.004",
			"primitives":[
				{
					"attributes":{
						"POSITION":0,
						"NORMAL":1,
						"TEXCOORD_0":2,
						"COLOR_0":3,
						"COLOR_1":4,
						"JOINTS_0":5,
						"WEIGHTS_0":6
					},
					"indices":7,
					"material":0
				}
			]
		},
		{
			"name":"Cylinder.005",
			"primitives":[
				{
					"attributes":{
						"POSITION":9,
						"NORMAL":10,
						"TEXCOORD_0":11,
						"COLOR_0":12,
						"COLOR_1":13,
						"JOINTS_0":14,
						"WEIGHTS_0":15
					},
					"indices":16,
					"material":0
				}
			]
		},
		{
			"name":"Cylinder.003",
			"primitives":[
				{
					"attributes":{
						"POSITION":17,
						"NORMAL":18,
						"TEXCOORD_0":19,
						"COLOR_0":20,
						"COLOR_1":21,
						"JOINTS_0":22,
						"WEIGHTS_0":23
					},
					"indices":24,
					"material":0
				}
			]
		},
		{
			"name":"Cylinder.002",
			"primitives":[
				{
					"attributes":{
						"POSITION":25,
						"NORMAL":26,
						"TEXCOORD_0":27,
						"COLOR_0":28,
						"COLOR_1":29,
						"JOINTS_0":30,
						"WEIGHTS_0":31
					},
					"indices":32,
					"material":0
				}
			]
		},
		{
			"name":"Sphere.001",
			"primitives":[
				{
					"attributes":{
						"POSITION":33,
						"NORMAL":34,
						"TEXCOORD_0":35,
						"JOINTS_0":36,
						"WEIGHTS_0":37
					},
					"indices":38,
					"material":1
				},
				{
					"attributes":{
						"POSITION":39,
						"NORMAL":40,
						"TEXCOORD_0":41,
						"JOINTS_0":42,
						"WEIGHTS_0":43
					},
					"indices":44,
					"material":2
				},
				{
					"attributes":{
						"POSITION":45,
						"NORMAL":46,
						"TEXCOORD_0":47,
						"JOINTS_0":48,
						"WEIGHTS_0":49
					},
					"indices":50,
					"material":3
				},
				{
					"attributes":{
						"POSITION":51,
						"NORMAL":52,
						"TEXCOORD_0":53,
						"JOINTS_0":54,
						"WEIGHTS_0":55
					},
					"indices":56,
					"material":4
				}
			]
		}
	],
	"skins":[
		{
			"inverseBindMatrices":8,
			"joints":[
				18,
				9,
				0,
				4,
				3,
				2,
				1,
				8,
				7,
				6,
				5,
				13,
				12,
				11,
				10,
				17,
				16,
				15,
				14
			],
			"name":"CharacterBase"
		}
	],
	"accessors":[
		{
			"bufferView":0,
			"componentType":5126,
			"count":311,
			"max":[
				1.7221109867095947,
				1.3715057373046875,
				0.09161102026700974
			],
			"min":[
				0.35531550645828247,
				1.2805041074752808,
				0.0006094556301832199
			],
			"type":"VEC3"
		},
		{
			"bufferView":1,
			"componentType":5126,
			"count":311,
			"type":"VEC3"
		},
		{
			"bufferView":2,
			"componentType":5126,
			"count":311,
			"type":"VEC2"
		},
		{
			"bufferView":3,
			"componentType":5121,
			"count":311,
			"normalized":true,
			"type":"VEC4"
		},
		{
			"bufferView":4,
			"componentType":5123,
			"count":311,
			"normalized":true,
			"type":"VEC4"
		},
		{
			"bufferView":5,
			"componentType":5121,
			"count":311,
			"type":"VEC4"
		},
		{
			"bufferView":6,
			"componentType":5126,
			"count":311,
			"type":"VEC4"
		},
		{
			"bufferView":7,
			"componentType":5123,
			"count":1620,
			"type":"SCALAR"
		},
		{
			"bufferView":8,
			"componentType":5126,
			"count":19,
			"type":"MAT4"
		},
		{
			"bufferView":9,
			"componentType":5126,
			"count":285,
			"max":[
				0.32002487778663635,
				1.1856393814086914,
				0.2630470395088196
			],
			"min":[
				0.22243541479110718,
				0.007913947105407715,
				0.03301084041595459
			],
			"type":"VEC3"
		},
		{
			"bufferView":10,
			"componentType":5126,
			"count":285,
			"type":"VEC3"
		},
		{
			"bufferView":11,
			"componentType":5126,
			"count":285,
			"type":"VEC2"
		},
		{
			"bufferView":12,
			"componentType":5121,
			"count":285,
			"normalized":true,
			"type":"VEC4"
		},
		{
			"bufferView":13,
			"componentType":5123,
			"count":285,
			"normalized":true,
			"type":"VEC4"
		},
		{
			"bufferView":14,
			"componentType":5121,
			"count":285,
			"type":"VEC4"
		},
		{
			"bufferView":15,
			"componentType":5126,
			"count":285,
			"type":"VEC4"
		},
		{
			"bufferView":16,
			"componentType":5123,
			"count":1476,
			"type":"SCALAR"
		},
		{
			"bufferView":17,
			"componentType":5126,
			"count":311,
			"max":[
				-0.3919961750507355,
				1.3715057373046875,
				0.09161102026700974
			],
			"min":[
				-1.713905692100525,
				1.2805041074752808,
				0.0006094705313444138
			],
			"type":"VEC3"
		},
		{
			"bufferView":18,
			"componentType":5126,
			"count":311,
			"type":"VEC3"
		},
		{
			"bufferView":19,
			"componentType":5126,
			"count":311,
			"type":"VEC2"
		},
		{
			"bufferView":20,
			"componentType":5121,
			"count":311,
			"normalized":true,
			"type":"VEC4"
		},
		{
			"bufferView":21,
			"componentType":5123,
			"count":311,
			"normalized":true,
			"type":"VEC4"
		},
		{
			"bufferView":22,
			"componentType":5121,
			"count":311,
			"type":"VEC4"
		},
		{
			"bufferView":23,
			"componentType":5126,
			"count":311,
			"type":"VEC4"
		},
		{
			"bufferView":24,
			"componentType":5123,
			"count":1620,
			"type":"SCALAR"
		},
		{
			"bufferView":25,
			"componentType":5126,
			"count":285,
			"max":[
				-0.21423056721687317,
				1.1856393814086914,
				0.26304709911346436
			],
			"min":[
				-0.31182006001472473,
				0.007913827896118164,
				0.0330108180642128
			],
			"type":"VEC3"
		},
		{
			"bufferView":26,
			"componentType":5126,
			"count":285,
			"type":"VEC3"
		},
		{
			"bufferView":27,
			"componentType":5126,
			"count":285,
			"type":"VEC2"
		},
		{
			"bufferView":28,
			"componentType":5121,
			"count":285,
			"normalized":true,
			"type":"VEC4"
		},
		{
			"bufferView":29,
			"componentType":5123,
			"count":285,
			"normalized":true,
			"type":"VEC4"
		},
		{
			"bufferView":30,
			"componentType":5121,
			"count":285,
			"type":"VEC4"
		},
		{
			"bufferView":31,
			"componentType":5126,
			"count":285,
			"type":"VEC4"
		},
		{
			"bufferView":32,
			"componentType":5123,
			"count":1476,
			"type":"SCALAR"
		},
		{
			"bufferView":33,
			"componentType":5126,
			"count":303,
			"max":[
				0.7000002264976501,
				2.5474252700805664,
				0.1972256302833557
			],
			"min":[
				-0.7000001072883606,
				0.6682700514793396,
				-0.5027746558189392
			],
			"type":"VEC3"
		},
		{
			"bufferView":34,
			"componentType":5126,
			"count":303,
			"type":"VEC3"
		},
		{
			"bufferView":35,
			"componentType":5126,
			"count":303,
			"type":"VEC2"
		},
		{
			"bufferView":36,
			"componentType":5121,
			"count":303,
			"type":"VEC4"
		},
		{
			"bufferView":37,
			"componentType":5126,
			"count":303,
			"type":"VEC4"
		},
		{
			"bufferView":38,
			"componentType":5123,
			"count":1632,
			"type":"SCALAR"
		},
		{
			"bufferView":39,
			"componentType":5126,
			"count":125,
			"max":[
				0.6725677847862244,
				2.505772352218628,
				0.1972256302833557
			],
			"min":[
				-0.6725676655769348,
				0.7002596855163574,
				0.11394912004470825
			],
			"type":"VEC3"
		},
		{
			"bufferView":40,
			"componentType":5126,
			"count":125,
			"type":"VEC3"
		},
		{
			"bufferView":41,
			"componentType":5126,
			"count":125,
			"type":"VEC2"
		},
		{
			"bufferView":42,
			"componentType":5121,
			"count":125,
			"type":"VEC4"
		},
		{
			"bufferView":43,
			"componentType":5126,
			"count":125,
			"type":"VEC4"
		},
		{
			"bufferView":44,
			"componentType":5123,
			"count":594,
			"type":"SCALAR"
		},
		{
			"bufferView":45,
			"componentType":5126,
			"count":53,
			"max":[
				0.27632153034210205,
				1.7602003812789917,
				0.40613991022109985
			],
			"min":[
				-0.28534600138664246,
				1.18752920627594,
				0.1253061592578888
			],
			"type":"VEC3"
		},
		{
			"bufferView":46,
			"componentType":5126,
			"count":53,
			"type":"VEC3"
		},
		{
			"bufferView":47,
			"componentType":5126,
			"count":53,
			"type":"VEC2"
		},
		{
			"bufferView":48,
			"componentType":5121,
			"count":53,
			"type":"VEC4"
		},
		{
			"bufferView":49,
			"componentType":5126,
			"count":53,
			"type":"VEC4"
		},
		{
			"bufferView":50,
			"componentType":5123,
			"count":216,
			"type":"SCALAR"
		},
		{
			"bufferView":51,
			"componentType":5126,
			"count":150,
			"max":[
				0.3583182692527771,
				1.1765460968017578,
				0.25498634576797485
			],
			"min":[
				-0.4248374402523041,
				0.9366941452026367,
				0.16033636033535004
			],
			"type":"VEC3"
		},
		{
			"bufferView":52,
			"componentType":5126,
			"count":150,
			"type":"VEC3"
		},
		{
			"bufferView":53,
			"componentType":5126,
			"count":150,
			"type":"VEC2"
		},
		{
			"bufferView":54,
			"componentType":5121,
			"count":150,
			"type":"VEC4"
		},
		{
			"bufferView":55,
			"componentType":5126,
			"count":150,
			"type":"VEC4"
		},
		{
			"bufferView":56,
			"componentType":5123,
			"count":864,
			"type":"SCALAR"
		}
	],
	"bufferViews":[
		{
			"buffer":0,
			"byteLength":3732,
			"byteOffset":0,
			"target":34962
		},
		{
			"buffer":0,
			"byteLength":3732,
			"byteOffset":3732,
			"target":34962
		},
		{
			"buffer":0,
			"byteLength":2488,
			"byteOffset":7464,
			"target":34962
		},
		{
			"buffer":0,
			"byteLength":1244,
			"byteOffset":9952,
			"target":34962
		},
		{
			"buffer":0,
			"byteLength":2488,
			"byteOffset":11196,
			"target":34962
		},
		{
			"buffer":0,
			"byteLength":1244,
			"byteOffset":13684,
			"target":34962
		},
		{
			"buffer":0,
			"byteLength":4976,
			"byteOffset":14928,
			"target":34962
		},
		{
			"buffer":0,
			"byteLength":3240,
			"byteOffset":19904,
			"target":34963
		},
		{
			"buffer":0,
			"byteLength":1216,
			"byteOffset":23144
		},
		{
			"buffer":0,
			"byteLength":3420,
			"byteOffset":24360,
			"target":34962
		},
		{
			"buffer":0,
			"byteLength":3420,
			"byteOffset":27780,
			"target":34962
		},
		{
			"buffer":0,
			"byteLength":2280,
			"byteOffset":31200,
			"target":34962
		},
		{
			"buffer":0,
			"byteLength":1140,
			"byteOffset":33480,
			"target":34962
		},
		{
			"buffer":0,
			"byteLength":2280,
			"byteOffset":34620,
			"target":34962
		},
		{
			"buffer":0,
			"byteLength":1140,
			"byteOffset":36900,
			"target":34962
		},
		{
			"buffer":0,
			"byteLength":4560,
			"byteOffset":38040,
			"target":34962
		},
		{
			"buffer":0,
			"byteLength":2952,
			"byteOffset":42600,
			"target":34963
		},
		{
			"buffer":0,
			"byteLength":3732,
			"byteOffset":45552,
			"target":34962
		},
		{
			"buffer":0,
			"byteLength":3732,
			"byteOffset":49284,
			"target":34962
		},
		{
			"buffer":0,
			"byteLength":2488,
			"byteOffset":53016,
			"target":34962
		},
		{
			"buffer":0,
			"byteLength":1244,
			"byteOffset":55504,
			"target":34962
		},
		{
			"buffer":0,
			"byteLength":2488,
			"byteOffset":56748,
			"target":34962
		},
		{
			"buffer":0,
			"byteLength":1244,
			"byteOffset":59236,
			"target":34962
		},
		{
			"buffer":0,
			"byteLength":4976,
			"byteOffset":60480,
			"target":34962
		},
		{
			"buffer":0,
			"byteLength":3240,
			"byteOffset":65456,
			"target":34963
		},
		{
			"buffer":0,
			"byteLength":3420,
			"byteOffset":68696,
			"target":34962
		},
		{
			"buffer":0,
			"byteLength":3420,
			"byteOffset":72116,
			"target":34962
		},
		{
			"buffer":0,
			"byteLength":2280,
			"byteOffset":75536,
			"target":34962
		},
		{
			"buffer":0,
			"byteLength":1140,
			"byteOffset":77816,
			"target":34962
		},
		{
			"buffer":0,
			"byteLength":2280,
			"byteOffset":78956,
			"target":34962
		},
		{
			"buffer":0,
			"byteLength":1140,
			"byteOffset":81236,
			"target":34962
		},
		{
			"buffer":0,
			"byteLength":4560,
			"byteOffset":82376,
			"target":34962
		},
		{
			"buffer":0,
			"byteLength":2952,
			"byteOffset":86936,
			"target":34963
		},
		{
			"buffer":0,
			"byteLength":3636,
			"byteOffset":89888,
			"target":34962
		},
		{
			"buffer":0,
			"byteLength":3636,
			"byteOffset":93524,
			"target":34962
		},
		{
			"buffer":0,
			"byteLength":2424,
			"byteOffset":97160,
			"target":34962
		},
		{
			"buffer":0,
			"byteLength":1212,
			"byteOffset":99584,
			"target":34962
		},
		{
			"buffer":0,
			"byteLength":4848,
			"byteOffset":100796,
			"target":34962
		},
		{
			"buffer":0,
			"byteLength":3264,
			"byteOffset":105644,
			"target":34963
		},
		{
			"buffer":0,
			"byteLength":1500,
			"byteOffset":108908,
			"target":34962
		},
		{
			"buffer":0,
			"byteLength":1500,
			"byteOffset":110408,
			"target":34962
		},
		{
			"buffer":0,
			"byteLength":1000,
			"byteOffset":111908,
			"target":34962
		},
		{
			"buffer":0,
			"byteLength":500,
			"byteOffset":112908,
			"target":34962
		},
		{
			"buffer":0,
			"byteLength":2000,
			"byteOffset":113408,
			"target":34962
		},
		{
			"buffer":0,
			"byteLength":1188,
			"byteOffset":115408,
			"target":34963
		},
		{
			"buffer":0,
			"byteLength":636,
			"byteOffset":116596,
			"target":34962
		},
		{
			"buffer":0,
			"byteLength":636,
			"byteOffset":117232,
			"target":34962
		},
		{
			"buffer":0,
			"byteLength":424,
			"byteOffset":117868,
			"target":34962
		},
		{
			"buffer":0,
			"byteLength":212,
			"byteOffset":118292,
			"target":34962
		},
		{
			"buffer":0,
			"byteLength":848,
			"byteOffset":118504,
			"target":34962
		},
		{
			"buffer":0,
			"byteLength":432,
			"byteOffset":119352,
			"target":34963
		},
		{
			"buffer":0,
			"byteLength":1800,
			"byteOffset":119784,
			"target":34962
		},
		{
			"buffer":0,
			"byteLength":1800,
			"byteOffset":121584,
			"target":34962
		},
		{
			"buffer":0,
			"byteLength":1200,
			"byteOffset":123384,
			"target":34962
		},
		{
			"buffer":0,
			"byteLength":600,
			"byteOffset":124584,
			"target":34962
		},
		{
			"buffer":0,
			"byteLength":2400,
			"byteOffset":125184,
			"target":34962
		},
		{
			"buffer":0,
			"byteLength":1728,
			"byteOffset":127584,
			"target":34963
		}
	],
	"buffers":[
		{
			"byteLength":129312,
			"uri":"avo.bin"
		}
	]
}
