{
	"asset":{
		"generator":"Khronos glTF Blender I/O v5.1.18",
		"version":"2.0"
	},
	"scene":0,
	"scenes":[
		{
			"name":"Scene",
			"nodes":[
				24
			]
		}
	],
	"nodes":[
		{
			"name":"skull",
			"rotation":[
				-0.005288190208375454,
				-0.0002204053453169763,
				-0.0043172757141292095,
				0.9999766945838928
			],
			"scale":[
				1,
				1.0000001192092896,
				1.0000001192092896
			],
			"translation":[
				-1.83936208486557e-08,
				22.512161254882812,
				4.16701368521899e-07
			]
		},
		{
			"name":"leftHand.001",
			"rotation":[
				-2.0885716964874442e-18,
				0,
				-7.0929556444856295e-15,
				1
			],
			"scale":[
				0.9999999403953552,
				0.9999999403953552,
				0.9999999403953552
			],
			"translation":[
				5.371475708670914e-09,
				16.147972106933594,
				-7.683021976845339e-06
			]
		},
		{
			"children":[
				1
			],
			"name":"leftHand",
			"rotation":[
				-1.7715068346233907e-15,
				-2.3822804165882094e-22,
				-7.262753563158121e-15,
				1
			],
			"scale":[
				0.9999999403953552,
				0.9999999403953552,
				0.9999999403953552
			],
			"translation":[
				5.371552980193428e-09,
				53.74610900878906,
				-7.683021976845339e-06
			]
		},
		{
			"children":[
				2
			],
			"name":"leftUpArm",
			"rotation":[
				1.7530737750348635e-08,
				-1.5397219499391213e-08,
				4.991298041545633e-09,
				1
			],
			"scale":[
				0.9999999403953552,
				0.9999999403953552,
				0.9999999403953552
			],
			"translation":[
				-3.640730028564576e-08,
				8.711841583251953,
				9.68924450717168e-06
			]
		},
		{
			"children":[
				3
			],
			"name":"leftShoulder",
			"rotation":[
				0.5038555860519409,
				0.5003425478935242,
				-0.49938756227493286,
				0.49638602137565613
			],
			"scale":[
				1.0000004768371582,
				1.0000004768371582,
				1.000000238418579
			],
			"translation":[
				51.00297164916992,
				11.49516487121582,
				-4.0909247398376465
			]
		},
		{
			"name":"right.hand.001",
			"rotation":[
				1.5458485704240521e-18,
				1.7763568394002505e-15,
				-1.647890191174053e-18,
				1
			],
			"scale":[
				1,
				0.9999999403953552,
				0.9999999403953552
			],
			"translation":[
				7.656374691578094e-06,
				16.14797019958496,
				-3.2486241252627224e-08
			]
		},
		{
			"children":[
				5
			],
			"name":"right.hand",
			"rotation":[
				4.473697684547785e-16,
				1.7763568394002505e-15,
				8.929947549173316e-16,
				1
			],
			"scale":[
				1,
				0.9999999403953552,
				0.9999999403953552
			],
			"translation":[
				7.656374691578094e-06,
				54.9649543762207,
				-3.248614177664422e-08
			]
		},
		{
			"children":[
				6
			],
			"name":"right.UpArm",
			"rotation":[
				-4.627509486709869e-09,
				1.3969856382800572e-09,
				-1.4971417883202776e-08,
				1
			],
			"scale":[
				1,
				0.9999999403953552,
				1
			],
			"translation":[
				-5.84866711506038e-06,
				8.711843490600586,
				-7.173412086558528e-09
			]
		},
		{
			"children":[
				7
			],
			"name":"right.shoulder",
			"rotation":[
				0.0027976753190159798,
				-0.003159452462568879,
				0.7047935128211975,
				0.7093999981880188
			],
			"scale":[
				1.0000001192092896,
				1,
				1.0000001192092896
			],
			"translation":[
				-50.139747619628906,
				12.15430736541748,
				-4.139898300170898
			]
		},
		{
			"children":[
				0,
				4,
				8
			],
			"name":"spine",
			"rotation":[
				-0.013431121595203876,
				0.00028583878884091973,
				0.0032548801973462105,
				0.999904453754425
			],
			"translation":[
				0,
				10.28447437286377,
				3.5762786865234375e-07
			]
		},
		{
			"name":"leftFoot",
			"rotation":[
				0.7095999717712402,
				1.752324990027341e-14,
				6.20351983116052e-08,
				0.7046047449111938
			],
			"scale":[
				0.9999999403953552,
				1,
				1
			],
			"translation":[
				-5.994079970150779e-07,
				31.07156753540039,
				3.428192485444015e-08
			]
		},
		{
			"children":[
				10
			],
			"name":"leftLeg",
			"rotation":[
				-0.0018597941379994154,
				-1.3552551389875814e-20,
				-1.6258838719807045e-10,
				0.9999982714653015
			],
			"scale":[
				0.9999999403953552,
				1,
				1
			],
			"translation":[
				-6.105146326262911e-07,
				36.42257308959961,
				5.437152594822692e-07
			]
		},
		{
			"children":[
				11
			],
			"name":"leftLegUp",
			"rotation":[
				0.000856165075674653,
				8.742274104633907e-08,
				-5.2041724131638914e-17,
				0.9999996423721313
			],
			"scale":[
				0.9999999403953552,
				0.9999998807907104,
				0.9999998807907104
			],
			"translation":[
				5.9995028323101e-07,
				19.82379913330078,
				2.0975585357518867e-07
			]
		},
		{
			"children":[
				12
			],
			"name":"leftHip",
			"rotation":[
				4.3709537322911274e-08,
				0.00921908300369978,
				0.9999575018882751,
				4.0297884473794454e-10
			],
			"scale":[
				1,
				1.0000001192092896,
				0.9999999403953552
			],
			"translation":[
				21.40580177307129,
				6.383120536804199,
				3.077350378036499
			]
		},
		{
			"name":"rightFoot",
			"rotation":[
				0.7095999121665955,
				7.509965211011972e-15,
				6.203520541703256e-08,
				0.7046048045158386
			],
			"scale":[
				0.9999999403953552,
				0.9999998807907104,
				0.9999999403953552
			],
			"translation":[
				-2.506756572984159e-06,
				31.071571350097656,
				-1.5183491086645517e-07
			]
		},
		{
			"children":[
				14
			],
			"name":"rightLeg",
			"rotation":[
				-0.0018598095048218966,
				-1.3552551389875814e-20,
				-1.625897333434878e-10,
				0.9999982714653015
			],
			"scale":[
				0.9999999403953552,
				1,
				1
			],
			"translation":[
				-2.51786332228221e-06,
				36.42257308959961,
				4.5212789245852036e-07
			]
		},
		{
			"children":[
				15
			],
			"name":"rightLegUp",
			"rotation":[
				0.000856165075674653,
				8.742274104633907e-08,
				-5.2041724131638914e-17,
				0.9999996423721313
			],
			"scale":[
				0.9999999403953552,
				0.9999998807907104,
				0.9999998807907104
			],
			"translation":[
				-1.3073982927380712e-06,
				19.82379913330078,
				3.0134299322526203e-07
			]
		},
		{
			"children":[
				16
			],
			"name":"rightHip",
			"rotation":[
				4.3709537322911274e-08,
				0.00921908300369978,
				0.9999575018882751,
				4.0297884473794454e-10
			],
			"scale":[
				1,
				1.0000001192092896,
				0.9999999403953552
			],
			"translation":[
				-21.181615829467773,
				6.383120536804199,
				3.077350378036499
			]
		},
		{
			"children":[
				9,
				13,
				17
			],
			"name":"hips",
			"rotation":[
				-0.7005578279495239,
				0,
				0,
				0.7135956287384033
			],
			"scale":[
				1,
				1.0000001192092896,
				1
			],
			"translation":[
				0,
				3.3944954872131348,
				-84.07559967041016
			]
		},
		{
			"mesh":0,
			"name":"egg.body",
			"skin":0
		},
		{
			"mesh":1,
			"name":"leftArm.001",
			"skin":0
		},
		{
			"mesh":2,
			"name":"leftLeg.001",
			"skin":0
		},
		{
			"mesh":3,
			"name":"rightArm.001",
			"skin":0
		},
		{
			"mesh":4,
			"name":"rightLeg.001",
			"skin":0
		},
		{
			"children":[
				19,
				20,
				21,
				22,
				23,
				18
			],
			"name":"egg",
			"rotation":[
				0.7071068286895752,
				0,
				0,
				0.7071068286895752
			],
			"scale":[
				0.012487047351896763,
				0.012487047351896763,
				0.012487047351896763
			],
			"translation":[
				0.004102344159036875,
				0,
				0.0034167803823947906
			]
		}
	],
	"materials":[
		{
			"doubleSided":true,
			"name":"eyes and mouth",
			"pbrMetallicRoughness":{
				"baseColorFactor":[
					0,
					0,
					0,
					1
				],
				"metallicFactor":0,
				"roughnessFactor":0
			}
		},
		{
			"doubleSided":true,
			"name":"Material.003",
			"pbrMetallicRoughness":{
				"baseColorFactor":[
					0.7013794183731079,
					0.8000229597091675,
					0.748579740524292,
					1
				],
				"metallicFactor":0,
				"roughnessFactor":0.38679245114326477
			}
		},
		{
			"doubleSided":true,
			"name":"Material.002",
			"pbrMetallicRoughness":{
				"baseColorFactor":[
					0.7250720262527466,
					0.8000074625015259,
					0.32570359110832214,
					1
				],
				"metallicFactor":0,
				"roughnessFactor":0.5
			}
		},
		{
			"doubleSided":true,
			"name":"pit.002",
			"pbrMetallicRoughness":{
				"baseColorFactor":[
					1,
					0.6986691951751709,
					0.012567311525344849,
					1
				],
				"metallicFactor":0,
				"roughnessFactor":0.5
			}
		},
		{
			"doubleSided":true,
			"name":"arms.002",
			"pbrMetallicRoughness":{
				"baseColorFactor":[
					0.15803682804107666,
					0.10411998629570007,
					0.024945992976427078,
					1
				],
				"metallicFactor":0,
				"roughnessFactor":0.30000001192092896
			}
		}
	],
	"meshes":[
		{
			"name":"Sphere.009",
			"primitives":[
				{
					"attributes":{
						"POSITION":0,
						"NORMAL":1,
						"TEXCOORD_0":2,
						"JOINTS_0":3,
						"WEIGHTS_0":4
					},
					"indices":5,
					"material":0
				},
				{
					"attributes":{
						"POSITION":6,
						"NORMAL":7,
						"TEXCOORD_0":8,
						"JOINTS_0":9,
						"WEIGHTS_0":10
					},
					"indices":11,
					"material":1
				},
				{
					"attributes":{
						"POSITION":12,
						"NORMAL":13,
						"TEXCOORD_0":14,
						"JOINTS_0":15,
						"WEIGHTS_0":16
					},
					"indices":17,
					"material":2
				},
				{
					"attributes":{
						"POSITION":18,
						"NORMAL":19,
						"TEXCOORD_0":20,
						"JOINTS_0":21,
						"WEIGHTS_0":22
					},
					"indices":23,
					"material":3
				}
			]
		},
		{
			"name":"Cylinder.007",
			"primitives":[
				{
					"attributes":{
						"POSITION":25,
						"NORMAL":26,
						"TEXCOORD_0":27,
						"COLOR_0":28,
						"COLOR_1":29,
						"JOINTS_0":30,
						"WEIGHTS_0":31
					},
					"indices":32,
					"material":4
				}
			]
		},
		{
			"name":"Cylinder.006",
			"primitives":[
				{
					"attributes":{
						"POSITION":33,
						"NORMAL":34,
						"TEXCOORD_0":35,
						"COLOR_0":36,
						"COLOR_1":37,
						"JOINTS_0":38,
						"WEIGHTS_0":39
					},
					"indices":40,
					"material":4
				}
			]
		},
		{
			"name":"Cylinder.008",
			"primitives":[
				{
					"attributes":{
						"POSITION":41,
						"NORMAL":42,
						"TEXCOORD_0":43,
						"COLOR_0":44,
						"COLOR_1":45,
						"JOINTS_0":46,
						"WEIGHTS_0":47
					},
					"indices":48,
					"material":4
				}
			]
		},
		{
			"name":"Cylinder.009",
			"primitives":[
				{
					"attributes":{
						"POSITION":49,
						"NORMAL":50,
						"TEXCOORD_0":51,
						"COLOR_0":52,
						"COLOR_1":53,
						"JOINTS_0":54,
						"WEIGHTS_0":55
					},
					"indices":56,
					"material":4
				}
			]
		}
	],
	"skins":[
		{
			"inverseBindMatrices":24,
			"joints":[
				18,
				9,
				0,
				4,
				3,
				2,
				1,
				8,
				7,
				6,
				5,
				13,
				12,
				11,
				10,
				17,
				16,
				15,
				14
			],
			"name":"egg"
		}
	],
	"accessors":[
		{
			"bufferView":0,
			"componentType":5126,
			"count":150,
			"max":[
				0.4040283262729645,
				1.3285483121871948,
				0.7452880144119263
			],
			"min":[
				-0.30584272742271423,
				1.1034069061279297,
				0.6111575961112976
			],
			"type":"VEC3"
		},
		{
			"bufferView":1,
			"componentType":5126,
			"count":150,
			"type":"VEC3"
		},
		{
			"bufferView":2,
			"componentType":5126,
			"count":150,
			"type":"VEC2"
		},
		{
			"bufferView":3,
			"componentType":5121,
			"count":150,
			"type":"VEC4"
		},
		{
			"bufferView":4,
			"componentType":5126,
			"count":150,
			"type":"VEC4"
		},
		{
			"bufferView":5,
			"componentType":5123,
			"count":864,
			"type":"SCALAR"
		},
		{
			"bufferView":6,
			"componentType":5126,
			"count":383,
			"max":[
				0.7688455581665039,
				2.594562530517578,
				0.7416732907295227
			],
			"min":[
				-0.7274138331413269,
				0.6184660792350769,
				-0.7099742293357849
			],
			"type":"VEC3"
		},
		{
			"bufferView":7,
			"componentType":5126,
			"count":383,
			"type":"VEC3"
		},
		{
			"bufferView":8,
			"componentType":5126,
			"count":383,
			"type":"VEC2"
		},
		{
			"bufferView":9,
			"componentType":5121,
			"count":383,
			"type":"VEC4"
		},
		{
			"bufferView":10,
			"componentType":5126,
			"count":383,
			"type":"VEC4"
		},
		{
			"bufferView":11,
			"componentType":5123,
			"count":1581,
			"type":"SCALAR"
		},
		{
			"bufferView":12,
			"componentType":5126,
			"count":102,
			"max":[
				0.7168102264404297,
				1.7964264154434204,
				0.6289510726928711
			],
			"min":[
				-0.6168302893638611,
				1.5381734371185303,
				-0.643121600151062
			],
			"type":"VEC3"
		},
		{
			"bufferView":13,
			"componentType":5126,
			"count":102,
			"type":"VEC3"
		},
		{
			"bufferView":14,
			"componentType":5126,
			"count":102,
			"type":"VEC2"
		},
		{
			"bufferView":15,
			"componentType":5121,
			"count":102,
			"type":"VEC4"
		},
		{
			"bufferView":16,
			"componentType":5126,
			"count":102,
			"type":"VEC4"
		},
		{
			"bufferView":17,
			"componentType":5123,
			"count":405,
			"type":"SCALAR"
		},
		{
			"bufferView":18,
			"componentType":5126,
			"count":88,
			"max":[
				0.38200223445892334,
				1.7830730676651,
				0.23600973188877106
			],
			"min":[
				-0.22052720189094543,
				1.4834702014923096,
				-0.36649978160858154
			],
			"type":"VEC3"
		},
		{
			"bufferView":19,
			"componentType":5126,
			"count":88,
			"type":"VEC3"
		},
		{
			"bufferView":20,
			"componentType":5126,
			"count":88,
			"type":"VEC2"
		},
		{
			"bufferView":21,
			"componentType":5121,
			"count":88,
			"type":"VEC4"
		},
		{
			"bufferView":22,
			"componentType":5126,
			"count":88,
			"type":"VEC4"
		},
		{
			"bufferView":23,
			"componentType":5123,
			"count":384,
			"type":"SCALAR"
		},
		{
			"bufferView":24,
			"componentType":5126,
			"count":19,
			"type":"MAT4"
		},
		{
			"bufferView":25,
			"componentType":5126,
			"count":311,
			"max":[
				1.7221109867095947,
				1.3715057373046875,
				0.09161102026700974
			],
			"min":[
				0.35531550645828247,
				1.2805041074752808,
				0.0006094556301832199
			],
			"type":"VEC3"
		},
		{
			"bufferView":26,
			"componentType":5126,
			"count":311,
			"type":"VEC3"
		},
		{
			"bufferView":27,
			"componentType":5126,
			"count":311,
			"type":"VEC2"
		},
		{
			"bufferView":28,
			"componentType":5121,
			"count":311,
			"normalized":true,
			"type":"VEC4"
		},
		{
			"bufferView":29,
			"componentType":5123,
			"count":311,
			"normalized":true,
			"type":"VEC4"
		},
		{
			"bufferView":30,
			"componentType":5121,
			"count":311,
			"type":"VEC4"
		},
		{
			"bufferView":31,
			"componentType":5126,
			"count":311,
			"type":"VEC4"
		},
		{
			"bufferView":32,
			"componentType":5123,
			"count":1620,
			"type":"SCALAR"
		},
		{
			"bufferView":33,
			"componentType":5126,
			"count":285,
			"max":[
				0.32002487778663635,
				1.1856393814086914,
				0.2630470395088196
			],
			"min":[
				0.22243541479110718,
				0.007913947105407715,
				0.03301084041595459
			],
			"type":"VEC3"
		},
		{
			"bufferView":34,
			"componentType":5126,
			"count":285,
			"type":"VEC3"
		},
		{
			"bufferView":35,
			"componentType":5126,
			"count":285,
			"type":"VEC2"
		},
		{
			"bufferView":36,
			"componentType":5121,
			"count":285,
			"normalized":true,
			"type":"VEC4"
		},
		{
			"bufferView":37,
			"componentType":5123,
			"count":285,
			"normalized":true,
			"type":"VEC4"
		},
		{
			"bufferView":38,
			"componentType":5121,
			"count":285,
			"type":"VEC4"
		},
		{
			"bufferView":39,
			"componentType":5126,
			"count":285,
			"type":"VEC4"
		},
		{
			"bufferView":40,
			"componentType":5123,
			"count":1476,
			"type":"SCALAR"
		},
		{
			"bufferView":41,
			"componentType":5126,
			"count":311,
			"max":[
				-0.3919961750507355,
				1.3715057373046875,
				0.09161102026700974
			],
			"min":[
				-1.713905692100525,
				1.2805041074752808,
				0.0006094705313444138
			],
			"type":"VEC3"
		},
		{
			"bufferView":42,
			"componentType":5126,
			"count":311,
			"type":"VEC3"
		},
		{
			"bufferView":43,
			"componentType":5126,
			"count":311,
			"type":"VEC2"
		},
		{
			"bufferView":44,
			"componentType":5121,
			"count":311,
			"normalized":true,
			"type":"VEC4"
		},
		{
			"bufferView":45,
			"componentType":5123,
			"count":311,
			"normalized":true,
			"type":"VEC4"
		},
		{
			"bufferView":46,
			"componentType":5121,
			"count":311,
			"type":"VEC4"
		},
		{
			"bufferView":47,
			"componentType":5126,
			"count":311,
			"type":"VEC4"
		},
		{
			"bufferView":48,
			"componentType":5123,
			"count":1620,
			"type":"SCALAR"
		},
		{
			"bufferView":49,
			"componentType":5126,
			"count":285,
			"max":[
				-0.21423056721687317,
				1.1856393814086914,
				0.26304709911346436
			],
			"min":[
				-0.31182006001472473,
				0.007913827896118164,
				0.0330108180642128
			],
			"type":"VEC3"
		},
		{
			"bufferView":50,
			"componentType":5126,
			"count":285,
			"type":"VEC3"
		},
		{
			"bufferView":51,
			"componentType":5126,
			"count":285,
			"type":"VEC2"
		},
		{
			"bufferView":52,
			"componentType":5121,
			"count":285,
			"normalized":true,
			"type":"VEC4"
		},
		{
			"bufferView":53,
			"componentType":5123,
			"count":285,
			"normalized":true,
			"type":"VEC4"
		},
		{
			"bufferView":54,
			"componentType":5121,
			"count":285,
			"type":"VEC4"
		},
		{
			"bufferView":55,
			"componentType":5126,
			"count":285,
			"type":"VEC4"
		},
		{
			"bufferView":56,
			"componentType":5123,
			"count":1476,
			"type":"SCALAR"
		}
	],
	"bufferViews":[
		{
			"buffer":0,
			"byteLength":1800,
			"byteOffset":0,
			"target":34962
		},
		{
			"buffer":0,
			"byteLength":1800,
			"byteOffset":1800,
			"target":34962
		},
		{
			"buffer":0,
			"byteLength":1200,
			"byteOffset":3600,
			"target":34962
		},
		{
			"buffer":0,
			"byteLength":600,
			"byteOffset":4800,
			"target":34962
		},
		{
			"buffer":0,
			"byteLength":2400,
			"byteOffset":5400,
			"target":34962
		},
		{
			"buffer":0,
			"byteLength":1728,
			"byteOffset":7800,
			"target":34963
		},
		{
			"buffer":0,
			"byteLength":4596,
			"byteOffset":9528,
			"target":34962
		},
		{
			"buffer":0,
			"byteLength":4596,
			"byteOffset":14124,
			"target":34962
		},
		{
			"buffer":0,
			"byteLength":3064,
			"byteOffset":18720,
			"target":34962
		},
		{
			"buffer":0,
			"byteLength":1532,
			"byteOffset":21784,
			"target":34962
		},
		{
			"buffer":0,
			"byteLength":6128,
			"byteOffset":23316,
			"target":34962
		},
		{
			"buffer":0,
			"byteLength":3162,
			"byteOffset":29444,
			"target":34963
		},
		{
			"buffer":0,
			"byteLength":1224,
			"byteOffset":32608,
			"target":34962
		},
		{
			"buffer":0,
			"byteLength":1224,
			"byteOffset":33832,
			"target":34962
		},
		{
			"buffer":0,
			"byteLength":816,
			"byteOffset":35056,
			"target":34962
		},
		{
			"buffer":0,
			"byteLength":408,
			"byteOffset":35872,
			"target":34962
		},
		{
			"buffer":0,
			"byteLength":1632,
			"byteOffset":36280,
			"target":34962
		},
		{
			"buffer":0,
			"byteLength":810,
			"byteOffset":37912,
			"target":34963
		},
		{
			"buffer":0,
			"byteLength":1056,
			"byteOffset":38724,
			"target":34962
		},
		{
			"buffer":0,
			"byteLength":1056,
			"byteOffset":39780,
			"target":34962
		},
		{
			"buffer":0,
			"byteLength":704,
			"byteOffset":40836,
			"target":34962
		},
		{
			"buffer":0,
			"byteLength":352,
			"byteOffset":41540,
			"target":34962
		},
		{
			"buffer":0,
			"byteLength":1408,
			"byteOffset":41892,
			"target":34962
		},
		{
			"buffer":0,
			"byteLength":768,
			"byteOffset":43300,
			"target":34963
		},
		{
			"buffer":0,
			"byteLength":1216,
			"byteOffset":44068
		},
		{
			"buffer":0,
			"byteLength":3732,
			"byteOffset":45284,
			"target":34962
		},
		{
			"buffer":0,
			"byteLength":3732,
			"byteOffset":49016,
			"target":34962
		},
		{
			"buffer":0,
			"byteLength":2488,
			"byteOffset":52748,
			"target":34962
		},
		{
			"buffer":0,
			"byteLength":1244,
			"byteOffset":55236,
			"target":34962
		},
		{
			"buffer":0,
			"byteLength":2488,
			"byteOffset":56480,
			"target":34962
		},
		{
			"buffer":0,
			"byteLength":1244,
			"byteOffset":58968,
			"target":34962
		},
		{
			"buffer":0,
			"byteLength":4976,
			"byteOffset":60212,
			"target":34962
		},
		{
			"buffer":0,
			"byteLength":3240,
			"byteOffset":65188,
			"target":34963
		},
		{
			"buffer":0,
			"byteLength":3420,
			"byteOffset":68428,
			"target":34962
		},
		{
			"buffer":0,
			"byteLength":3420,
			"byteOffset":71848,
			"target":34962
		},
		{
			"buffer":0,
			"byteLength":2280,
			"byteOffset":75268,
			"target":34962
		},
		{
			"buffer":0,
			"byteLength":1140,
			"byteOffset":77548,
			"target":34962
		},
		{
			"buffer":0,
			"byteLength":2280,
			"byteOffset":78688,
			"target":34962
		},
		{
			"buffer":0,
			"byteLength":1140,
			"byteOffset":80968,
			"target":34962
		},
		{
			"buffer":0,
			"byteLength":4560,
			"byteOffset":82108,
			"target":34962
		},
		{
			"buffer":0,
			"byteLength":2952,
			"byteOffset":86668,
			"target":34963
		},
		{
			"buffer":0,
			"byteLength":3732,
			"byteOffset":89620,
			"target":34962
		},
		{
			"buffer":0,
			"byteLength":3732,
			"byteOffset":93352,
			"target":34962
		},
		{
			"buffer":0,
			"byteLength":2488,
			"byteOffset":97084,
			"target":34962
		},
		{
			"buffer":0,
			"byteLength":1244,
			"byteOffset":99572,
			"target":34962
		},
		{
			"buffer":0,
			"byteLength":2488,
			"byteOffset":100816,
			"target":34962
		},
		{
			"buffer":0,
			"byteLength":1244,
			"byteOffset":103304,
			"target":34962
		},
		{
			"buffer":0,
			"byteLength":4976,
			"byteOffset":104548,
			"target":34962
		},
		{
			"buffer":0,
			"byteLength":3240,
			"byteOffset":109524,
			"target":34963
		},
		{
			"buffer":0,
			"byteLength":3420,
			"byteOffset":112764,
			"target":34962
		},
		{
			"buffer":0,
			"byteLength":3420,
			"byteOffset":116184,
			"target":34962
		},
		{
			"buffer":0,
			"byteLength":2280,
			"byteOffset":119604,
			"target":34962
		},
		{
			"buffer":0,
			"byteLength":1140,
			"byteOffset":121884,
			"target":34962
		},
		{
			"buffer":0,
			"byteLength":2280,
			"byteOffset":123024,
			"target":34962
		},
		{
			"buffer":0,
			"byteLength":1140,
			"byteOffset":125304,
			"target":34962
		},
		{
			"buffer":0,
			"byteLength":4560,
			"byteOffset":126444,
			"target":34962
		},
		{
			"buffer":0,
			"byteLength":2952,
			"byteOffset":131004,
			"target":34963
		}
	],
	"buffers":[
		{
			"byteLength":133956,
			"uri":"egg.bin"
		}
	]
}
